<svg width="512" height="559" viewBox="0 0 512 559" fill="none" xmlns="http://www.w3.org/2000/svg">
<path d="M232.272 464.795C303.947 458.882 360.272 398.837 360.272 325.636C360.272 248.517 297.755 186 220.636 186C143.517 186 80.9997 248.517 80.9997 325.636V535.091H232.272L232.272 464.795Z" fill="#BFFF2F"/>
<circle cx="174.545" cy="174.545" r="174.545" transform="matrix(-1 0 0 1 430.363 46)" fill="#BFFF2F"/>
<mask id="mask0_17678_1330" style="mask-type:alpha" maskUnits="userSpaceOnUse" x="80" y="186" width="281" height="350">
<path d="M232.272 464.795C303.947 458.882 360.272 398.837 360.272 325.636C360.272 248.517 297.755 186 220.636 186C143.517 186 80.9997 248.517 80.9997 325.636V535.091H232.272L232.272 464.795Z" fill="#BFFF2F"/>
</mask>
<g mask="url(#mask0_17678_1330)">
<circle cx="174.545" cy="174.545" r="174.545" transform="matrix(-1 0 0 1 430.363 46)" fill="#91D100"/>
</g>
</svg>
